<?xml version="1.0" encoding="UTF-8"?>
<svg version="1.1" xmlns="http://www.w3.org/2000/svg" width="1000" height="1000">
<path d="M0 0 C1.48388439 0.35010432 2.96784407 0.69988965 4.45187378 1.04937744 C9.22461246 2.17511671 13.99517683 3.3099134 18.765625 4.4453125 C20.40043983 4.83385105 22.03526651 5.22233972 23.67010498 5.61077881 C32.57898374 7.72834788 41.48576682 9.85456366 50.39110756 11.98695946 C55.08692837 13.11080486 59.78441216 14.22733458 64.48339844 15.33789062 C69.63727874 16.55633162 74.78708465 17.79036316 79.93322754 19.04107666 C81.70878255 19.4701351 83.48569255 19.89363264 85.26403809 20.31097412 C103.61655773 24.62903158 119.56726907 31.13314947 130.0546875 47.8203125 C131.015625 49.5703125 131.015625 49.5703125 131.015625 50.5703125 C130.02103271 50.59218628 130.02103271 50.59218628 129.00634766 50.61450195 C90.20387476 51.56294727 55.820635 60.52063869 26.015625 86.5703125 C25.23832031 87.21484375 24.46101562 87.859375 23.66015625 88.5234375 C17.65426747 93.60931922 12.80857762 99.345476 8.015625 105.5703125 C7.34660156 106.42367187 6.67757812 107.27703125 5.98828125 108.15625 C-7.19335182 125.5403443 -15.5786214 145.27214685 -19.984375 166.5703125 C-20.20996094 167.62476563 -20.43554688 168.67921875 -20.66796875 169.765625 C-27.33392676 207.18693412 -17.47117985 245.67471691 4.015625 276.5703125 C6.53652485 280.0480857 9.19559265 283.33172247 12.015625 286.5703125 C12.82386719 287.52292969 13.63210938 288.47554687 14.46484375 289.45703125 C33.37712651 311.26835401 59.38991761 325.19588141 87.015625 332.5703125 C88.28792969 332.91191406 89.56023437 333.25351562 90.87109375 333.60546875 C110.29241934 337.86192645 133.79919574 337.58592139 153.015625 332.5703125 C153.70043945 332.39870605 154.38525391 332.22709961 155.09082031 332.05029297 C179.0150096 325.9742222 199.99047095 314.42507543 218.015625 297.5703125 C218.97984375 296.68730469 219.9440625 295.80429687 220.9375 294.89453125 C234.59665866 281.87202829 244.61458739 265.83940026 252.015625 248.5703125 C208.785625 248.5703125 165.555625 248.5703125 121.015625 248.5703125 C121.015625 236.6903125 121.015625 224.8103125 121.015625 212.5703125 C167.545625 212.5703125 214.075625 212.5703125 262.015625 212.5703125 C263.00895984 195.97206894 263.00895984 195.97206894 262.140625 179.6953125 C262.04910156 178.79941406 261.95757813 177.90351563 261.86328125 176.98046875 C261.35855999 172.15362742 260.70257238 167.37894417 260.015625 162.5703125 C214.145625 162.5703125 168.275625 162.5703125 121.015625 162.5703125 C121.015625 151.0203125 121.015625 139.4703125 121.015625 127.5703125 C194.36010613 127.37058471 267.68418966 128.21691436 341.015625 129.5703125 C357.98260432 191.80620558 350.47587181 258.00926277 318.35595703 314.30126953 C308.14944072 331.57984195 295.9118908 347.13854513 282.015625 361.5703125 C281.51385742 362.09399414 281.01208984 362.61767578 280.49511719 363.15722656 C273.74055549 370.17241443 266.75172984 376.62808704 259.015625 382.5703125 C258.45504395 383.0019873 257.89446289 383.43366211 257.31689453 383.87841797 C248.26418749 390.80628423 238.94490336 396.97682704 229.015625 402.5703125 C228.32581543 402.96573242 227.63600586 403.36115234 226.92529297 403.76855469 C172.16867253 434.93447587 105.72081643 441.32590063 45.296875 424.78125 C31.64657505 420.85238874 18.72428294 415.89854566 6.015625 409.5703125 C5.20512695 409.17054199 4.39462891 408.77077148 3.55957031 408.35888672 C-16.27039873 398.49870274 -34.12959521 386.25150312 -50.2734375 371.09375 C-52.52692676 368.99612167 -54.81777664 366.9897214 -57.171875 365.0078125 C-97.81250177 329.54114643 -123.5469683 270.20584111 -127.703125 217.1875 C-128.97204714 195.64022595 -128.8378366 173.84662483 -124.984375 152.5703125 C-124.82340332 151.67699219 -124.66243164 150.78367187 -124.49658203 149.86328125 C-114.0294952 94.28013428 -83.15186997 41.16409079 -37.984375 6.5703125 C-36.74039561 5.56310464 -35.49694003 4.55524963 -34.25390625 3.546875 C-32.93624987 2.51129565 -31.61724802 1.47742587 -30.296875 0.4453125 C-29.69101562 -0.05323242 -29.08515625 -0.55177734 -28.4609375 -1.06542969 C-27.86667969 -1.51821289 -27.27242188 -1.97099609 -26.66015625 -2.4375 C-25.8853894 -3.05069092 -25.8853894 -3.05069092 -25.0949707 -3.67626953 C-17.79886044 -6.28075724 -7.34578667 -1.74889166 0 0 Z " fill="#EF1E23" transform="translate(382.984375,313.4296875)"/>
<path d="M0 0 C1.26610107 -0.06421143 2.53220215 -0.12842285 3.83666992 -0.19458008 C12.65325194 -0.29086838 12.65325194 -0.29086838 15.88769531 2.61328125 C17.44727425 4.92705905 18.65441909 7.2146481 19.8125 9.75 C20.41835938 10.7296875 21.02421875 11.709375 21.6484375 12.71875 C22.15632812 13.5540625 22.66421875 14.389375 23.1875 15.25 C34.70700041 33.29805754 51.3535111 42.02170034 71.8125 46.75 C72.78703125 46.976875 73.7615625 47.20375 74.765625 47.4375 C76.7772664 47.89296598 78.79418315 48.32509119 80.8125 48.75 C80.8125 50.07 80.8125 51.39 80.8125 52.75 C69.44229035 52.64239466 58.07214296 52.52974023 46.70204735 52.41066074 C41.42231667 52.35552412 36.14258037 52.30211908 30.86279297 52.25268555 C25.76640739 52.20490522 20.67008722 52.15255777 15.57378006 52.09705925 C13.63057715 52.07669753 11.68735635 52.05797445 9.74412155 52.04092598 C7.01994116 52.01674469 4.29588293 51.98670943 1.57177734 51.95532227 C0.77048401 51.9495668 -0.03080933 51.94381134 -0.85638428 51.93788147 C-1.97942459 51.92319824 -1.97942459 51.92319824 -3.12515259 51.90821838 C-3.76856409 51.90176583 -4.41197559 51.89531328 -5.07488441 51.8886652 C-7.79973311 51.70981501 -10.49394232 51.19892628 -13.1875 50.75 C-13.1875 71.21 -13.1875 91.67 -13.1875 112.75 C33.3425 112.75 79.8725 112.75 127.8125 112.75 C131.39331307 119.91162613 128.8125 128.74305857 128.8125 136.75 C81.9525 136.75 35.0925 136.75 -13.1875 136.75 C-13.1875 157.21 -13.1875 177.67 -13.1875 198.75 C27.4025 198.75 67.9925 198.75 109.8125 198.75 C99.77821014 223.83572466 71.66405194 242.34288542 47.82421875 252.60595703 C43.57228618 254.30561113 39.23499343 255.58894529 34.8125 256.75 C34.12269043 256.94319824 33.43288086 257.13639648 32.72216797 257.33544922 C10.69281334 263.3389997 -14.25637897 262.94549078 -36.1875 256.75 C-37.19006836 256.47712158 -37.19006836 256.47712158 -38.21289062 256.19873047 C-71.38753701 246.94588169 -98.78861083 223.481373 -115.66333008 193.84667969 C-132.16853576 163.73265665 -136.13657927 127.54315799 -126.74609375 94.50390625 C-116.42481281 60.49930281 -94.32635767 32.92377279 -63.1875 15.75 C-43.1763629 5.14774376 -22.55948883 0.63196144 0 0 Z " fill="#1E5A64" transform="translate(504.1875,376.25)"/>
<path d="M0 0 C1.00343445 0.23941315 2.0068689 0.47882629 3.04071045 0.72549438 C6.2323694 1.48821862 9.42097445 2.26284023 12.609375 3.0390625 C15.78386427 3.80643637 18.958954 4.57110674 22.13519287 5.33120728 C24.10428042 5.80297481 26.07234602 6.27903832 28.03912354 6.76034546 C52.19028136 12.57400072 72.68415739 10.94451144 95.9765625 2.76953125 C113.00053199 -2.79372899 131.64245206 -1.55913549 147.671875 6.3515625 C154.19933401 9.72867024 159.91850759 13.70028608 165.359375 18.6640625 C165.9678125 19.18097656 166.57625 19.69789063 167.203125 20.23046875 C180.09950476 31.9251404 186.54471622 48.79789111 187.546875 65.85546875 C187.75223189 76.52119221 186.60462612 86.82279855 182.359375 96.6640625 C177.9708438 92.51430692 174.34089101 87.95293477 170.671875 83.1640625 C170.05828125 82.36887207 169.4446875 81.57368164 168.8125 80.75439453 C166.99168566 78.39332291 165.17544975 76.02878031 163.359375 73.6640625 C162.38455787 72.4006995 161.40933767 71.13764734 160.43359375 69.875 C153.4672542 60.85056894 153.4672542 60.85056894 152.19845581 58.65701294 C150.22234804 55.47774618 148.70864834 53.09702127 145.04632568 51.92184448 C142.24086449 51.64269954 139.52971777 51.6079413 136.7109375 51.6640625 C135.69840912 51.65318604 134.68588074 51.64230957 133.64266968 51.63110352 C130.42214822 51.60499597 127.20481077 51.63375818 123.984375 51.6640625 C121.79555651 51.65596895 119.60674814 51.64429022 117.41796875 51.62890625 C112.06452469 51.59909041 106.71263881 51.61426559 101.359375 51.6640625 C101.17012451 53.42447876 101.17012451 53.42447876 100.97705078 55.22045898 C100.47941599 59.18753554 99.58209451 62.91407535 98.4765625 66.76171875 C98.11022242 68.07083639 97.74435085 69.38008522 97.37890625 70.68945312 C96.80720448 72.71400492 96.23132311 74.73711728 95.64697266 76.75805664 C95.07796596 78.7352233 94.52624916 80.71660738 93.9765625 82.69921875 C93.64253418 83.868479 93.30850586 85.03773926 92.96435547 86.24243164 C92.14398191 90.88227643 92.28770489 94.7275025 94.59936523 98.90478516 C95.11700439 99.5394873 95.63464355 100.17418945 96.16796875 100.828125 C96.74530762 101.5512085 97.32264648 102.27429199 97.91748047 103.01928711 C98.53768066 103.76831299 99.15788086 104.51733887 99.796875 105.2890625 C101.07971356 106.88648873 102.36226396 108.48414641 103.64453125 110.08203125 C104.27762207 110.8611084 104.91071289 111.64018555 105.56298828 112.44287109 C108.00223591 115.45894542 110.37602657 118.52207011 112.734375 121.6015625 C113.51296875 122.61476563 114.2915625 123.62796875 115.09375 124.671875 C118.58661093 129.28486029 121.98642327 133.96265772 125.359375 138.6640625 C118.23936042 143.02290069 108.01335152 140.99778458 100.234375 139.4765625 C84.3281232 135.63773525 70.48478049 127.98182065 61.61328125 113.890625 C58.32953263 108.25158891 55.26958966 102.49982746 52.20703125 96.73828125 C51.64516113 95.68705078 51.08329102 94.63582031 50.50439453 93.55273438 C49.39138061 91.46611177 48.28647195 89.37513927 47.19091797 87.27929688 C39.220426 72.30547458 28.76841864 60.33585274 12.2147522 54.96871948 C6.06639642 53.17908295 -0.16388699 51.71409467 -6.390625 50.2265625 C-8.44905409 49.72315748 -10.50723458 49.21873498 -12.56518555 48.71337891 C-25.33131775 45.59511636 -38.1279422 42.60588544 -50.92578125 39.62109375 C-51.65440998 39.45101114 -52.38303871 39.28092854 -53.1337471 39.10569191 C-60.40057182 37.40946943 -67.66810363 35.71679791 -74.94155979 34.04920864 C-77.66392622 33.42414052 -80.38519901 32.79439982 -83.10629082 32.16380882 C-84.99286528 31.72850805 -86.88094857 31.29976295 -88.76905823 30.87117004 C-89.89690231 30.60930405 -91.0247464 30.34743805 -92.18676758 30.07763672 C-93.66503777 29.73888016 -93.66503777 29.73888016 -95.173172 29.39328003 C-97.640625 28.6640625 -97.640625 28.6640625 -100.640625 26.6640625 C-76.88358856 13.81660171 -51.00812788 5.3827024 -24.84765625 -1.05859375 C-23.84839111 -1.30488525 -22.84912598 -1.55117676 -21.81958008 -1.80493164 C-14.0443846 -3.10368367 -7.5497566 -1.86400788 0 0 Z " fill="#1E5A64" transform="translate(475.640625,271.3359375)"/>
<path d="M0 0 C3.51808854 0.62842192 4.33485098 1.94921643 6.49609375 4.76953125 C7.25664062 5.76082031 8.0171875 6.75210938 8.80078125 7.7734375 C9.22713867 8.34594238 9.65349609 8.91844727 10.09277344 9.50830078 C11.78228041 11.75441081 13.51838719 13.96114376 15.25390625 16.171875 C16.54472373 17.84891107 17.83378331 19.52730164 19.12109375 21.20703125 C19.75329834 22.01052002 20.38550293 22.81400879 21.03686523 23.6418457 C25.95234276 30.1807217 25.95234276 30.1807217 26.0234375 34.47265625 C25.55859375 37.45703125 25.55859375 37.45703125 24.55859375 38.45703125 C21.4296875 39.05078125 21.4296875 39.05078125 17.55859375 38.45703125 C14.76750779 35.96930767 12.74198939 33.02027661 10.62109375 29.95703125 C10.03263672 29.14621094 9.44417969 28.33539063 8.83789062 27.5 C7.39040218 25.49940621 5.96578273 23.48607522 4.55859375 21.45703125 C2.57605624 32.07587042 2.57605624 32.07587042 4.48828125 42.38671875 C5.5090987 43.74546197 6.5336199 45.10142068 7.55859375 46.45703125 C7.49609375 49.20703125 7.49609375 49.20703125 6.55859375 51.45703125 C3.55859375 53.45703125 3.55859375 53.45703125 1.0793457 53.32055664 C-1.95819223 52.27999764 -2.88975136 51.20928791 -4.7734375 48.640625 C-5.34384766 47.87685547 -5.91425781 47.11308594 -6.50195312 46.32617188 C-7.08009766 45.52373047 -7.65824219 44.72128906 -8.25390625 43.89453125 C-8.85138672 43.08822266 -9.44886719 42.28191406 -10.06445312 41.45117188 C-11.5358925 39.46178585 -12.99402489 37.46395255 -14.44140625 35.45703125 C-14.49151855 36.33963623 -14.54163086 37.22224121 -14.59326172 38.1315918 C-14.78409722 41.42144875 -14.98252403 44.71066806 -15.18603516 47.99975586 C-15.2723941 49.42047362 -15.35576695 50.84137629 -15.43603516 52.26245117 C-15.5522722 54.31094972 -15.67940918 56.35853207 -15.80859375 58.40625 C-15.88190918 59.63690186 -15.95522461 60.86755371 -16.03076172 62.13549805 C-16.42143157 65.29546439 -16.96385623 67.64488855 -18.44140625 70.45703125 C-20.87890625 71.39453125 -20.87890625 71.39453125 -23.44140625 71.45703125 C-24.43140625 70.79703125 -25.42140625 70.13703125 -26.44140625 69.45703125 C-26.74181501 67.02791953 -26.81442169 64.88897822 -26.75390625 62.45703125 C-26.74335205 61.70607178 -26.73279785 60.9551123 -26.72192383 60.18139648 C-26.66013029 57.27150795 -26.55479093 54.36539082 -26.44140625 51.45703125 C-26.41606812 50.79971008 -26.39072998 50.14238892 -26.36462402 49.46514893 C-26.18572119 44.92539248 -25.97885073 40.38768547 -25.74667358 35.8503418 C-25.66819693 34.29715886 -25.59383161 32.7437627 -25.52359009 31.19018555 C-25.42080906 28.97731152 -25.29895107 26.76628335 -25.171875 24.5546875 C-25.06975708 22.61348022 -25.06975708 22.61348022 -24.96557617 20.63305664 C-24.44140625 17.45703125 -24.44140625 17.45703125 -23.04492188 15.54663086 C-21.44140625 14.45703125 -21.44140625 14.45703125 -19.0546875 13.92578125 C-15.17649817 14.7141725 -13.98529047 16.86207884 -11.62890625 19.95703125 C-10.83871094 20.97796875 -10.04851562 21.99890625 -9.234375 23.05078125 C-8.64269531 23.84484375 -8.05101562 24.63890625 -7.44140625 25.45703125 C-7.39653076 24.80629639 -7.35165527 24.15556152 -7.30541992 23.48510742 C-7.09410997 20.5370309 -6.86176195 17.59098091 -6.62890625 14.64453125 C-6.55865234 13.62037109 -6.48839844 12.59621094 -6.41601562 11.54101562 C-6.33544922 10.55810547 -6.25488281 9.57519531 -6.171875 8.5625 C-6.10379639 7.65653076 -6.03571777 6.75056152 -5.96557617 5.81713867 C-5.15116586 2.15020598 -3.67176624 0.68735464 0 0 Z " fill="#1E5A64" transform="translate(327.44140625,217.54296875)"/>
<path d="M0 0 C4.78732801 4.91671526 7.14575728 10.14357943 7.375 16.9375 C7.11596211 23.77610033 5.46914838 28.73058693 0.8125 33.8125 C-5.17537473 39.28784266 -11.31030281 40.61670225 -19.328125 40.33984375 C-26.54325131 39.42213032 -31.09641438 35.61167954 -35.58984375 30.07421875 C-39.06952008 24.95591367 -39.74087713 19.05435528 -39 13 C-37.50066103 6.78008597 -34.62627882 1.3022825 -29.07421875 -2.22265625 C-19.06839476 -7.4799536 -8.93805052 -7.34122943 0 0 Z M-26 9 C-28.28352953 12.04470604 -28.42464146 15.20890858 -28.3125 18.97265625 C-27.78010527 22.42656706 -26.28137423 24.41844495 -24 27 C-19.89742275 29.89045216 -16.73124687 30.47632849 -11.8984375 29.65234375 C-8.11091066 28.35086848 -5.74884461 25.49768921 -4 22 C-3.35513138 17.99201911 -3.1326904 14.4437369 -5.26953125 10.88671875 C-8.8611102 6.56729992 -8.8611102 6.56729992 -13.98828125 4.76171875 C-19.29680769 4.59220278 -22.22192615 4.87846489 -26 9 Z " fill="#1E5A64" transform="translate(388,203)"/>
<path d="M0 0 C4.60214839 3.49988558 7.42455475 8.269758 9.234375 13.69921875 C9.9065317 21.13701829 9.85804829 27.58447922 5.234375 33.69921875 C0.86276631 38.67107423 -4.21981214 41.60114265 -10.765625 42.69921875 C-17.58624683 42.85376456 -23.42314141 41.76076083 -28.578125 37.0390625 C-33.61847371 31.75719708 -36.52395511 26.55527301 -36.890625 19.1875 C-36.54808181 12.19747805 -34.09152862 7.21287499 -29.3125 2.1640625 C-20.97837896 -5.35857834 -9.48798034 -5.27277888 0 0 Z M-22.765625 10.69921875 C-25.76681891 14.0755619 -26.30028586 17.18919051 -26.12109375 21.703125 C-25.40038981 25.75015479 -23.18983771 28.58019448 -20.015625 31.07421875 C-14.88712802 32.49880125 -11.15280227 32.37972081 -6.453125 30.07421875 C-2.63019363 26.69581429 -1.06294673 23.73799635 -0.328125 18.69921875 C-0.90367875 14.75256446 -2.19888069 12.73878438 -4.765625 9.69921875 C-11.6145633 5.41863231 -16.33762436 6.53671303 -22.765625 10.69921875 Z " fill="#1E5A64" transform="translate(742.765625,308.30078125)"/>
<path d="M0 0 C5.94362489 3.56617493 9.46185544 8.83148325 11.5 15.375 C12.61556109 23.34329349 11.27708379 29.83793797 6.5 36.375 C-0.17475939 42.7640693 -5.8633518 43.79934844 -14.98046875 43.71484375 C-21.62417863 43.07333125 -25.39178626 39.73877079 -29.875 35.0625 C-33.95858983 29.89959624 -34.75479414 24.84978361 -34.4375 18.375 C-33.56241787 11.75083177 -30.45782756 6.89414691 -25.5 2.5 C-18.17540049 -2.68825799 -8.30934452 -3.7985575 0 0 Z M-21.8125 13.5625 C-23.99925577 17.20709296 -24.29521893 20.27841765 -23.5 24.375 C-21.27708378 28.73850222 -19.04977416 31.47044338 -14.5 33.375 C-10.75528098 33.77621989 -8.29352761 33.70717435 -4.8125 32.25 C-1.83452969 29.83542948 -0.19642371 27.83309448 1.5 24.375 C1.95363083 19.91874416 0.9443573 16.51028413 -1.8125 13 C-5.16825079 9.72228993 -6.80190723 8.55564817 -11.4375 8.0625 C-16.10142292 8.5384105 -18.46322322 10.39426521 -21.8125 13.5625 Z " fill="#1E5A64" transform="translate(285.5,271.625)"/>
<path d="M0 0 C1.05316406 0.309375 2.10632813 0.61875 3.19140625 0.9375 C4.72412176 4.00293102 4.06225107 7.10586569 3.81640625 10.4375 C3.76750244 11.15421875 3.71859863 11.8709375 3.66821289 12.609375 C3.28504798 18.06319113 2.80523069 23.50450073 2.19140625 28.9375 C3.83754037 27.45866808 5.48330533 25.97942523 7.12890625 24.5 C8.04542969 23.67628906 8.96195313 22.85257812 9.90625 22.00390625 C11.57474981 20.49796061 11.57474981 20.49796061 13.19140625 18.9375 C16.12890625 18.75 16.12890625 18.75 19.19140625 18.9375 C21.19140625 20.9375 21.19140625 20.9375 21.59765625 23.75390625 C21.07115905 27.87982181 19.70955837 29.07048214 16.69140625 31.875 C15.77359375 32.73867188 14.85578125 33.60234375 13.91015625 34.4921875 C7.85219463 39.94087137 7.85219463 39.94087137 5.26171875 42.1328125 C3.69477191 43.49871711 2.17653123 44.92075898 0.68359375 46.3671875 C-0.18007813 47.19476563 -1.04375 48.02234375 -1.93359375 48.875 C-3.11308594 50.03322266 -3.11308594 50.03322266 -4.31640625 51.21484375 C-7.41088901 53.35382008 -9.12075993 53.51468175 -12.80859375 52.9375 C-14.80859375 49.9375 -14.80859375 49.9375 -14.62109375 47.0625 C-13.80859375 43.9375 -13.80859375 43.9375 -12.33203125 41.85546875 C-10.17169869 37.71760099 -9.99539609 33.72994902 -9.62109375 29.125 C-9.53923828 28.24134766 -9.45738281 27.35769531 -9.37304688 26.44726562 C-9.17374019 24.27833995 -8.98964838 22.10802551 -8.80859375 19.9375 C-9.26371338 20.40333496 -9.71883301 20.86916992 -10.18774414 21.34912109 C-12.03938098 23.235063 -13.92019649 25.08836998 -15.80859375 26.9375 C-16.48019531 27.60523438 -17.15179687 28.27296875 -17.84375 28.9609375 C-22.96612163 33.79708798 -22.96612163 33.79708798 -27.18359375 34.5 C-29.80859375 33.9375 -29.80859375 33.9375 -31.80859375 31.9375 C-32.43359375 29.3125 -32.43359375 29.3125 -31.80859375 25.9375 C-29.45169537 22.92726451 -26.67390919 20.45700151 -23.80859375 17.9375 C-22.87273438 17.10605469 -22.87273438 17.10605469 -21.91796875 16.2578125 C-20.64843792 15.1429724 -19.36790379 14.04057004 -18.078125 12.94921875 C-16.27520087 11.35110184 -14.57929989 9.72584701 -12.8828125 8.01953125 C-12.36493164 7.51139893 -11.84705078 7.0032666 -11.31347656 6.47973633 C-10.28792088 5.47063426 -9.27729408 4.44607456 -8.28417969 3.4050293 C-5.36536426 0.57330597 -4.13356659 -0.06783289 0 0 Z " fill="#1E5A64" transform="translate(702.80859375,260.0625)"/>
<path d="M0 0 C3.02151494 3.44212355 4.22062508 6.41156354 4.5625 10.94140625 C4.29379892 14.90474724 3.30148226 17.23106156 1.3125 20.62890625 C0.6525 20.62890625 -0.0075 20.62890625 -0.6875 20.62890625 C-0.6875 21.28890625 -0.6875 21.94890625 -0.6875 22.62890625 C-0.10355469 22.89058594 0.48039062 23.15226562 1.08203125 23.421875 C5.59442123 25.86378131 9.42360167 29.61718898 11.5 34.31640625 C11.3125 36.62890625 11.3125 36.62890625 9.6875 39.00390625 C7.3125 40.62890625 7.3125 40.62890625 4.91333008 40.44165039 C1.94419072 39.51381176 0.54896386 38.40239567 -1.67578125 36.25 C-2.38154297 35.57646484 -3.08730469 34.90292969 -3.81445312 34.20898438 C-4.53568359 33.50193359 -5.25691406 32.79488281 -6 32.06640625 C-6.74056641 31.35548828 -7.48113281 30.64457031 -8.24414062 29.91210938 C-10.06721414 28.15960645 -11.88106106 26.39852443 -13.6875 24.62890625 C-13.56890625 25.6653125 -13.4503125 26.70171875 -13.328125 27.76953125 C-13.19678547 29.13921492 -13.06663962 30.50901342 -12.9375 31.87890625 C-12.85628906 32.56082031 -12.77507812 33.24273437 -12.69140625 33.9453125 C-12.38325797 37.4718984 -12.38561341 39.21624154 -14.5078125 42.1171875 C-16.6875 43.62890625 -16.6875 43.62890625 -19.3125 43.56640625 C-21.6875 42.62890625 -21.6875 42.62890625 -23.6875 39.62890625 C-24.12457538 37.3787043 -24.46787581 35.10978455 -24.7578125 32.8359375 C-24.84376678 32.17107834 -24.92972107 31.50621918 -25.01828003 30.82121277 C-25.19844134 29.41376045 -25.37471014 28.00580517 -25.54736328 26.59741211 C-25.80956562 24.46526767 -26.08538209 22.33522701 -26.36328125 20.20507812 C-28.1317176 6.3822406 -28.1317176 6.3822406 -27.6875 0.62890625 C-21.99535349 -5.06324026 -6.35106259 -5.16023836 0 0 Z M-16.6875 7.62890625 C-16.3575 11.91890625 -16.0275 16.20890625 -15.6875 20.62890625 C-14.6975 19.30890625 -13.7075 17.98890625 -12.6875 16.62890625 C-10.0625 15.44140625 -10.0625 15.44140625 -7.6875 14.62890625 C-6.42277935 13.57460939 -6.42277935 13.57460939 -6.4375 11.19140625 C-6.52 10.34578125 -6.6025 9.50015625 -6.6875 8.62890625 C-10.4745665 6.10419525 -12.41956496 6.20626124 -16.6875 7.62890625 Z " fill="#1E5A64" transform="translate(462.6875,178.37109375)"/>
<path d="M0 0 C6.66790133 0.03740758 13.27396082 0.46127292 19.91015625 1.078125 C20.74345459 1.14805664 21.57675293 1.21798828 22.43530273 1.29003906 C23.22235596 1.37092773 24.00940918 1.45181641 24.8203125 1.53515625 C25.87617554 1.63727417 25.87617554 1.63727417 26.95336914 1.74145508 C29.41453499 2.42248653 30.37385726 3.17959268 31.84765625 5.265625 C32.26586914 7.68969727 32.26586914 7.68969727 31.84765625 10.265625 C30.30639648 12.39038086 30.30639648 12.39038086 28.15625 14.48046875 C27.37572266 15.24939453 26.59519531 16.01832031 25.79101562 16.81054688 C24.96408203 17.60009766 24.13714844 18.38964844 23.28515625 19.203125 C22.48529297 19.98880859 21.68542969 20.77449219 20.86132812 21.58398438 C16.33610804 25.99838274 11.69675532 30.21060658 6.84765625 34.265625 C7.69529541 34.38623291 7.69529541 34.38623291 8.56005859 34.50927734 C11.11558227 34.87780688 13.66904909 35.25905152 16.22265625 35.640625 C17.11210938 35.76695312 18.0015625 35.89328125 18.91796875 36.0234375 C19.76875 36.15234375 20.61953125 36.28125 21.49609375 36.4140625 C22.28161621 36.52927246 23.06713867 36.64448242 23.87646484 36.76318359 C25.84765625 37.265625 25.84765625 37.265625 27.84765625 39.265625 C28.09765625 41.765625 28.09765625 41.765625 27.84765625 44.265625 C25.84765625 46.265625 25.84765625 46.265625 23.4765625 46.53125 C0.29008833 46.41310236 0.29008833 46.41310236 -9.15234375 43.265625 C-9.97436523 40.13647461 -9.97436523 40.13647461 -10.15234375 36.265625 C-8.4821881 33.86956924 -7.10145875 32.26981411 -5 30.33203125 C-4.19881996 29.54783058 -4.19881996 29.54783058 -3.38145447 28.74778748 C-1.6771442 27.08813475 0.05285171 25.45848684 1.78515625 23.828125 C2.94777376 22.70564798 4.10860444 21.58131706 5.26757812 20.45507812 C8.10734572 17.70334688 10.97047793 14.97819415 13.84765625 12.265625 C9.97611733 10.32985554 5.29526814 10.38270063 1.03515625 9.86328125 C-2.15234375 9.265625 -2.15234375 9.265625 -4.15234375 7.265625 C-4.40234375 4.765625 -4.40234375 4.765625 -4.15234375 2.265625 C-2.15234375 0.265625 -2.15234375 0.265625 0 0 Z " fill="#1E5A64" transform="translate(508.15234375,173.734375)"/>
<path d="M0 0 C3.1875 0.4375 3.1875 0.4375 5.08203125 2.7734375 C7.94919411 7.41927145 9.97730602 12.46963554 12.0625 17.5 C12.49046875 18.48033203 12.9184375 19.46066406 13.359375 20.47070312 C13.95105469 21.89479492 13.95105469 21.89479492 14.5546875 23.34765625 C14.91675293 24.20496338 15.27881836 25.06227051 15.65185547 25.94555664 C16.32914089 29.0964465 15.65053385 30.61786264 14.1875 33.4375 C13.8575 33.7675 13.5275 34.0975 13.1875 34.4375 C5.32860328 34.05817206 -1.89949895 31.33570451 -9.3125 28.875 C-10.62478252 28.4452988 -11.93728105 28.01625671 -13.25 27.58789062 C-16.43967995 26.54420858 -19.6270195 25.49391585 -22.8125 24.4375 C-22.1628125 25.83162109 -22.1628125 25.83162109 -21.5 27.25390625 C-20.93681661 28.5022961 -20.37435492 29.7510117 -19.8125 31 C-19.52632812 31.60908203 -19.24015625 32.21816406 -18.9453125 32.84570312 C-17.01312136 37.19313319 -16.25017945 40.69877785 -16.8125 45.4375 C-19.8125 47.4375 -19.8125 47.4375 -22.3515625 47.3125 C-24.8125 46.4375 -24.8125 46.4375 -26.1484375 44.75 C-26.66277344 43.6053125 -26.66277344 43.6053125 -27.1875 42.4375 C-27.59097656 41.54546875 -27.99445312 40.6534375 -28.41015625 39.734375 C-28.87292969 38.64640625 -29.33570313 37.5584375 -29.8125 36.4375 C-30.43617915 35.02603338 -31.05987837 33.61457562 -31.68359375 32.203125 C-32.33304951 30.69891637 -32.98018151 29.19370234 -33.625 27.6875 C-34.09655518 26.60662109 -34.09655518 26.60662109 -34.57763672 25.50390625 C-36.30224652 21.35948025 -37.38078237 18.01114603 -36.8125 13.4375 C-36.1525 12.7775 -35.4925 12.1175 -34.8125 11.4375 C-26.77687414 11.69725433 -19.3892719 14.14851758 -11.75 16.5 C-10.50283203 16.87705078 -9.25566406 17.25410156 -7.97070312 17.64257812 C-4.91577464 18.56724996 -1.86321507 19.4990392 1.1875 20.4375 C0.83091309 19.61983154 0.47432617 18.80216309 0.10693359 17.9597168 C-0.35374512 16.88375244 -0.81442383 15.80778809 -1.2890625 14.69921875 C-1.74877441 13.63405029 -2.20848633 12.56888184 -2.68212891 11.47143555 C-4.06511773 7.75946965 -4.33116842 5.32751318 -3.8125 1.4375 C-2.8125 0.4375 -2.8125 0.4375 0 0 Z " fill="#1E5A64" transform="translate(761.8125,346.5625)"/>
<path d="M0 0 C6.39220731 -0.95472695 10.81808893 1.42576576 16.328125 4.26953125 C17.63435822 4.92474007 17.63435822 4.92474007 18.96697998 5.59318542 C20.7990302 6.51557111 22.62770198 7.44469434 24.453125 8.38012695 C27.24762474 9.81128355 30.05227361 11.2207014 32.859375 12.62695312 C34.64125845 13.5273934 36.42253041 14.42904497 38.203125 15.33203125 C39.4593869 15.96501884 39.4593869 15.96501884 40.74102783 16.61079407 C41.51903748 17.01098251 42.29704712 17.41117096 43.09863281 17.82348633 C43.78145325 18.17212234 44.46427368 18.52075836 45.16778564 18.87995911 C47.11771843 20.07196181 48.52628823 21.25450057 50 23 C50.4375 25.5 50.4375 25.5 50 28 C46.73379634 31.19476662 42.88778757 32.03744934 38.56640625 33.04296875 C37.85145493 33.21629227 37.1365036 33.38961578 36.39988708 33.56819153 C34.89228182 33.93147449 33.383543 34.29008137 31.8737793 34.64428711 C29.57110274 35.18547812 27.27281007 35.74287528 24.97460938 36.30273438 C23.50543981 36.65461371 22.03604558 37.00555659 20.56640625 37.35546875 C19.88292618 37.52104782 19.19944611 37.68662689 18.49525452 37.85722351 C14.94697033 38.68199832 11.64469659 39.35397087 8 39 C6.125 37.3125 6.125 37.3125 5 35 C5.3125 32.25 5.3125 32.25 6 30 C7.98 29.34 9.96 28.68 12 28 C11.67 27.34 11.34 26.68 11 26 C10.75 22.5625 10.75 22.5625 11 19 C12.515625 17.27734375 12.515625 17.27734375 14 16 C12.92878906 15.48050781 11.85757813 14.96101563 10.75390625 14.42578125 C9.35630024 13.72228829 7.95919014 13.01780953 6.5625 12.3125 C5.85544922 11.97283203 5.14839844 11.63316406 4.41992188 11.28320312 C-0.72374266 8.64984377 -0.72374266 8.64984377 -2.09765625 5.41796875 C-2 3 -2 3 0 0 Z M20 19 C20.33 20.98 20.66 22.96 21 25 C25.455 24.505 25.455 24.505 30 24 C26.8745041 21.35534962 23.91211733 20.15585285 20 19 Z " fill="#1E5A64" transform="translate(741,397)"/>
<path d="M0 0 C7.80625068 0.27729416 15.29232185 2.41600642 22.8137207 4.38354492 C24.95477955 4.9420071 27.09915076 5.48615332 29.24414062 6.02929688 C30.60959398 6.38196575 31.97483667 6.73545148 33.33984375 7.08984375 C34.57081787 7.40816162 35.80179199 7.72647949 37.07006836 8.05444336 C40 9 40 9 42 11 C42.25 14 42.25 14 42 17 C39.23776722 19.76223278 36.79293383 19.57856291 33 20 C32.34 21.98 31.68 23.96 31 26 C29.02 26.33 27.04 26.66 25 27 C25.63808594 27.88042969 26.27617187 28.76085937 26.93359375 29.66796875 C27.76867162 30.84083093 28.60328255 32.01402568 29.4375 33.1875 C29.85837891 33.76564453 30.27925781 34.34378906 30.71289062 34.93945312 C33.03016192 38.22070928 34.83806484 40.92345836 35 45 C34.34 45.99 33.68 46.98 33 48 C30.1015625 48.43359375 30.1015625 48.43359375 27 48 C25.0859375 46.41015625 25.0859375 46.41015625 23.375 44.0625 C22.70082031 43.15242188 22.02664062 42.24234375 21.33203125 41.3046875 C20.55320874 40.20417001 19.77599325 39.10251427 19 38 C18.04596406 36.66899039 17.09151264 35.33827851 16.13671875 34.0078125 C14.06713235 31.10999367 12.02043507 28.19761422 9.98828125 25.2734375 C8.10432997 22.56331979 6.19060623 19.88205009 4.23046875 17.2265625 C3.80950928 16.64688721 3.3885498 16.06721191 2.95483398 15.4699707 C1.82681254 13.91816977 0.68725194 12.37477523 -0.453125 10.83203125 C-2.2345008 7.57067404 -2.47655359 5.66221074 -2 2 C-1.34 1.34 -0.68 0.68 0 0 Z M15 14 C16.98 16.97 18.96 19.94 21 23 C23.29255415 19.39517786 23.29255415 19.39517786 22.625 16.75 C22.41875 16.1725 22.2125 15.595 22 15 C19.69 14.67 17.38 14.34 15 14 Z " fill="#1E5A64" transform="translate(196,387)"/>
<path d="M0 0 C5.93819249 0.67327486 10.86889038 2.30082011 16.28173828 4.79370117 C17.420625 5.28386719 17.420625 5.28386719 18.58251953 5.78393555 C25.07187485 8.7047039 31.30627608 12.30108893 34.15673828 19.10620117 C35.09809793 26.04253541 34.69933096 31.63856436 30.73876953 37.48510742 C27.94669794 40.34611905 25.23552387 41.93002632 21.27294922 42.57714844 C12.61423169 42.66827152 6.17582807 40.75829723 -1.59326172 37.04370117 C-2.67091797 36.57770508 -3.74857422 36.11170898 -4.85888672 35.6315918 C-7.73822346 34.29553592 -10.30556064 33.01296603 -12.84326172 31.10620117 C-14.17138672 27.36010742 -14.17138672 27.36010742 -13.84326172 24.10620117 C-11.84326172 22.10620117 -11.84326172 22.10620117 -8.84716797 21.69995117 C-3.66831864 21.85010161 0.65953595 24.3517381 5.21923828 26.60620117 C12.7996937 30.64468313 12.7996937 30.64468313 21.15673828 31.10620117 C23.3269412 29.01698361 23.3269412 29.01698361 24.15673828 26.10620117 C23.72261139 23.53228092 23.72261139 23.53228092 22.15673828 21.10620117 C19.28257725 19.18285225 19.28257725 19.18285225 15.78173828 17.66870117 C14.52117862 17.07525481 13.26076477 16.48149865 12.00048828 15.88745117 C11.36240234 15.59354492 10.72431641 15.29963867 10.06689453 14.99682617 C7.10629446 13.61642369 4.19788956 12.14066325 1.28173828 10.66870117 C0.29431641 10.17499023 -0.69310547 9.6812793 -1.71044922 9.17260742 C-2.41427734 8.82069336 -3.11810547 8.4687793 -3.84326172 8.10620117 C-3.96826172 5.23120117 -3.96826172 5.23120117 -3.84326172 2.10620117 C-1.84326172 0.10620117 -1.84326172 0.10620117 0 0 Z " fill="#1E5A64" transform="translate(215.84326171875,341.893798828125)"/>
<path d="M0 0 C3.79545758 2.03830129 7.08898371 4.07179986 9 8 C9.23534378 11.01763028 9.1742084 13.98038766 9 17 C7.02 17.66 5.04 18.32 3 19 C-0.2542015 16.16569547 -1.5206753 14.31392226 -2 10 C-3.98 10 -5.96 10 -8 10 C-7.50622802 14.40537184 -6.1350474 16.25023049 -3 19.3125 C1.56308181 24.26951693 1.56308181 24.26951693 2.25 28.0625 C1.88104241 33.87358202 0.12805934 37.93642731 -4.0625 42 C-9.95976336 44.00757901 -15.79292772 44.04334326 -21.4375 41.375 C-25.46858617 37.63887136 -27.77837358 34.86799412 -28.4375 29.3125 C-28 26 -28 26 -26.875 24 C-25 23 -25 23 -22 22.8125 C-19 24 -19 24 -17.9453125 25.859375 C-17.18910199 27.89034036 -16.54454617 29.90301956 -16 32 C-14.02 32 -12.04 32 -10 32 C-10.11134531 27.43484212 -11.33001055 25.3421983 -14.5 22.25 C-15.1290625 21.67765625 -15.758125 21.1053125 -16.40625 20.515625 C-18.9743706 18.07339266 -19.2015865 16.18248109 -19.3125 12.75 C-19.24513385 8.09425068 -18.18638926 5.52179866 -15 2 C-10.06066436 -1.56091639 -5.69767011 -1.51120999 0 0 Z " fill="#1E5A64" transform="translate(623,203)"/>
<path d="M0 0 C4.11131248 0.29336582 7.28821356 1.2152625 11.14453125 2.6484375 C12.35753906 3.08929688 13.57054687 3.53015625 14.8203125 3.984375 C17.83203125 5.2734375 17.83203125 5.2734375 19.83203125 7.2734375 C20.08203125 9.7734375 20.08203125 9.7734375 19.83203125 12.2734375 C17.83203125 14.2734375 17.83203125 14.2734375 14.70703125 14.5859375 C10.17578283 14.22051424 7.00507928 13.03051035 2.83203125 11.2734375 C2.50203125 13.2534375 2.17203125 15.2334375 1.83203125 17.2734375 C2.98832031 17.72783203 2.98832031 17.72783203 4.16796875 18.19140625 C5.67230469 18.81982422 5.67230469 18.81982422 7.20703125 19.4609375 C8.20476563 19.86699219 9.2025 20.27304688 10.23046875 20.69140625 C12.83203125 22.2734375 12.83203125 22.2734375 14.26953125 24.8046875 C14.83203125 27.2734375 14.83203125 27.2734375 13.45703125 29.5859375 C12.92078125 30.1428125 12.38453125 30.6996875 11.83203125 31.2734375 C7.26075225 30.72488402 3.1576733 29.85598947 -1.16796875 28.2734375 C-2.65296875 31.7384375 -2.65296875 31.7384375 -4.16796875 35.2734375 C-3.5646875 35.38300781 -2.96140625 35.49257812 -2.33984375 35.60546875 C6.31891214 37.32325419 6.31891214 37.32325419 8.83203125 40.2734375 C9.20703125 42.8359375 9.20703125 42.8359375 8.83203125 45.2734375 C8.17203125 45.9334375 7.51203125 46.5934375 6.83203125 47.2734375 C-0.46447027 47.03806648 -7.50548782 45.28766444 -14.16796875 42.2734375 C-16.16796875 39.2734375 -16.16796875 39.2734375 -15.93139648 36.03442383 C-15.16716593 32.26948246 -14.16362203 28.74276754 -12.953125 25.09765625 C-12.73732285 24.44642288 -12.52152069 23.79518951 -12.29917908 23.1242218 C-11.84570953 21.76111145 -11.38925655 20.39899024 -10.92993164 19.0378418 C-10.22744379 16.95195554 -9.53798599 14.86206435 -8.84960938 12.77148438 C-8.40571797 11.44245089 -7.96108295 10.11366549 -7.515625 8.78515625 C-7.11351807 7.58334717 -6.71141113 6.38153809 -6.29711914 5.14331055 C-4.77610561 1.27746967 -4.20973387 0.36335557 0 0 Z " fill="#1E5A64" transform="translate(578.16796875,186.7265625)"/>
<path d="M0 0 C6.8655545 0.74806284 12.40185476 6.35711451 16.9140625 11.2890625 C18.68909963 15.4308158 18.90058094 18.91290448 18.2265625 23.3515625 C16.47888265 27.49080426 14.03251704 29.98341301 10.2265625 32.3515625 C4.05783409 33.84399679 0.7653777 33.39248065 -4.7734375 30.3515625 C-5.80021367 29.37907564 -6.80735733 28.38436892 -7.7734375 27.3515625 C-8.33933594 28.13402344 -8.90523437 28.91648438 -9.48828125 29.72265625 C-10.22175781 30.73457031 -10.95523438 31.74648437 -11.7109375 32.7890625 C-12.44183594 33.79839844 -13.17273438 34.80773437 -13.92578125 35.84765625 C-15.7734375 38.3515625 -15.7734375 38.3515625 -16.7734375 39.3515625 C-19.1484375 39.6640625 -19.1484375 39.6640625 -21.7734375 39.3515625 C-23.7109375 37.7265625 -23.7109375 37.7265625 -24.7734375 35.3515625 C-23.59493237 30.58843758 -21.43301635 26.97799965 -18.7109375 22.9296875 C-18.31898193 22.34362732 -17.92702637 21.75756714 -17.52319336 21.15374756 C-16.69937162 19.92469835 -15.87224982 18.6978553 -15.04199219 17.47314453 C-13.77072392 15.59755897 -12.50956215 13.71549324 -11.25 11.83203125 C-3.6088963 0.45746573 -3.6088963 0.45746573 0 0 Z M1.2265625 12.3515625 C-1.2484375 16.8065625 -1.2484375 16.8065625 -3.7734375 21.3515625 C-0.4734375 21.6815625 2.8265625 22.0115625 6.2265625 22.3515625 C6.8865625 20.7015625 7.5465625 19.0515625 8.2265625 17.3515625 C6.60316445 15.64272245 4.93337197 13.97709533 3.2265625 12.3515625 C2.5665625 12.3515625 1.9065625 12.3515625 1.2265625 12.3515625 Z " fill="#1E5A64" transform="translate(649.7734375,219.6484375)"/>
<path d="M0 0 C2.4375 0.3125 2.4375 0.3125 4.4375 2.3125 C4.81711544 6.58317373 4.10346432 9.41863895 2.4375 13.3125 C5.66571443 15.41813035 8.89523851 17.52174356 12.125 19.625 C13.03701172 20.21990234 13.94902344 20.81480469 14.88867188 21.42773438 C16.21801758 22.29301758 16.21801758 22.29301758 17.57421875 23.17578125 C18.38592529 23.70469971 19.19763184 24.23361816 20.03393555 24.77856445 C22.4565138 26.36713926 22.4565138 26.36713926 25.18286133 27.78588867 C27.4375 29.3125 27.4375 29.3125 28.375 32.875 C28.395625 34.009375 28.41625 35.14375 28.4375 36.3125 C26.4375 38.3125 26.4375 38.3125 23.8671875 38.76171875 C18.96793462 38.12001706 15.65496906 35.78612971 11.5625 33.125 C10.79808594 32.64224609 10.03367188 32.15949219 9.24609375 31.66210938 C7.72335456 30.69908671 6.20407613 29.73056798 4.68847656 28.75634766 C1.29102538 26.57711487 -2.1356351 24.44507069 -5.5625 22.3125 C-5.85125 23.09625 -6.14 23.88 -6.4375 24.6875 C-7.5625 27.3125 -7.5625 27.3125 -9.5625 29.3125 C-12.5625 29.625 -12.5625 29.625 -15.5625 29.3125 C-17.5625 26.3125 -17.5625 26.3125 -17.33740234 23.89501953 C-16.55406697 21.2843952 -15.59022359 19.30805411 -14.1640625 16.9921875 C-13.68453125 16.20972656 -13.205 15.42726563 -12.7109375 14.62109375 C-12.20820313 13.81800781 -11.70546875 13.01492188 -11.1875 12.1875 C-10.6925 11.37667969 -10.1975 10.56585938 -9.6875 9.73046875 C-3.97172137 0.48435626 -3.97172137 0.48435626 0 0 Z " fill="#1E5A64" transform="translate(239.5625,303.6875)"/>
<path d="M0 0 C2 2 2 2 2.125 5.125 C2.08375 6.07375 2.0425 7.0225 2 8 C-4.75 11 -4.75 11 -7 11 C-6.62862915 12.27846802 -6.62862915 12.27846802 -6.24975586 13.58276367 C-5.33321714 16.75789251 -4.42683232 19.93556496 -3.52709961 23.11547852 C-3.13625389 24.48902204 -2.7414395 25.8614429 -2.3425293 27.23266602 C-1.76855593 29.20825225 -1.20915691 31.18748717 -0.65234375 33.16796875 C-0.31195068 34.35672607 0.02844238 35.5454834 0.37915039 36.77026367 C1.0024587 40.01279048 1.11274052 41.9070692 0 45 C-3 47 -3 47 -5.5 47 C-8 46 -8 46 -9.45703125 43.6328125 C-11.50109148 38.82021501 -12.84465305 33.921452 -14.1875 28.875 C-14.46013672 27.88628906 -14.73277344 26.89757812 -15.01367188 25.87890625 C-16.13439748 21.72744648 -17 18.33228819 -17 14 C-17.886875 14.350625 -18.77375 14.70125 -19.6875 15.0625 C-23.09454787 16.02675883 -24.68899149 16.1036695 -28 15 C-28.66 14.34 -29.32 13.68 -30 13 C-29.625 9.875 -29.625 9.875 -29 7 C-26.47950607 6.20723961 -23.95861986 5.41576535 -21.4375 4.625 C-20.73302734 4.40328125 -20.02855469 4.1815625 -19.30273438 3.953125 C-5.15680009 -0.47970233 -5.15680009 -0.47970233 0 0 Z " fill="#1E5A64" transform="translate(422,181)"/>
<path d="M0 0 C5.625 5.625 5.625 5.625 7.45703125 8.33203125 C7.84697266 8.90244141 8.23691406 9.47285156 8.63867188 10.06054688 C9.2197168 10.92776367 9.2197168 10.92776367 9.8125 11.8125 C10.21919922 12.40998047 10.62589844 13.00746094 11.04492188 13.62304688 C12.03479703 15.07874564 13.01809735 16.53891174 14 18 C17.67087464 14.49155344 20.6944308 10.87626858 23.6875 6.75 C27.77990431 1.11004785 27.77990431 1.11004785 30 0 C30 9.9 30 19.8 30 30 C27.69 30 25.38 30 23 30 C22.67 27.03 22.34 24.06 22 21 C21.51789063 21.6496875 21.03578125 22.299375 20.5390625 22.96875 C19.90742188 23.8040625 19.27578125 24.639375 18.625 25.5 C17.99851562 26.3353125 17.37203125 27.170625 16.7265625 28.03125 C16.15679687 28.6809375 15.58703125 29.330625 15 30 C14.34 30 13.68 30 13 30 C11.4921875 28.03125 11.4921875 28.03125 9.875 25.5 C9.33617187 24.6646875 8.79734375 23.829375 8.2421875 22.96875 C7.83226562 22.3190625 7.42234375 21.669375 7 21 C6.67 23.97 6.34 26.94 6 30 C3.69 30 1.38 30 -1 30 C-0.67 20.1 -0.34 10.2 0 0 Z " fill="#EF1E23" transform="translate(476,780)"/>
<path d="M0 0 C9.87449551 2.75190858 19.41030026 6.40127837 29 10 C29 10.66 29 11.32 29 12 C22.07 15.63 15.14 19.26 8 23 C14.435 25.97 14.435 25.97 21 29 C20.67 30.65 20.34 32.3 20 34 C16.2700322 35.38316424 14.07919481 34.58707234 10.4296875 33.19921875 C8.83833984 32.59883789 8.83833984 32.59883789 7.21484375 31.98632812 C6.11269531 31.55771484 5.01054688 31.12910156 3.875 30.6875 C2.21017578 30.06198242 2.21017578 30.06198242 0.51171875 29.42382812 C-7.71913485 26.28086515 -7.71913485 26.28086515 -10 24 C-6.7121022 22.15984502 -3.41908674 20.32904953 -0.125 18.5 C0.81214844 17.97535156 1.74929688 17.45070313 2.71484375 16.91015625 C3.61074219 16.41386719 4.50664063 15.91757812 5.4296875 15.40625 C6.25710449 14.94541016 7.08452148 14.48457031 7.93701172 14.00976562 C10 13 10 13 12 13 C12 12.34 12 11.68 12 11 C11.40832031 10.87882813 10.81664062 10.75765625 10.20703125 10.6328125 C5.96196415 9.73255357 1.97560339 8.79543379 -2 7 C-1.34 4.69 -0.68 2.38 0 0 Z " fill="#EF1E23" transform="translate(745,595)"/>
<path d="M0 0 C0.66 0 1.32 0 2 0 C2.26478149 0.93851807 2.26478149 0.93851807 2.53491211 1.89599609 C3.33371081 4.7229187 4.13556672 7.54896509 4.9375 10.375 C5.35418945 11.85226562 5.35418945 11.85226562 5.77929688 13.359375 C6.04677734 14.30039062 6.31425781 15.24140625 6.58984375 16.2109375 C6.83597412 17.08024902 7.08210449 17.94956055 7.33569336 18.84521484 C7.94172747 21.02000258 7.94172747 21.02000258 9 23 C11.31 19.04 13.62 15.08 16 11 C17.98 11.66 19.96 12.32 22 13 C21.09311468 19.13210882 17.85411469 23.63130196 14.625 28.8125 C14.03460938 29.79154297 13.44421875 30.77058594 12.8359375 31.77929688 C12.26359375 32.70419922 11.69125 33.62910156 11.1015625 34.58203125 C10.57900879 35.42999268 10.05645508 36.2779541 9.51806641 37.15161133 C8.76662354 38.06656372 8.76662354 38.06656372 8 39 C7.01 39 6.02 39 5 39 C1.535 28.11 1.535 28.11 -2 17 C-4.31 20.96 -6.62 24.92 -9 29 C-14 27 -14 27 -14.96386719 25.15039062 C-15.01202439 22.28438646 -14.13864343 20.98647635 -12.578125 18.59375 C-12.04703125 17.76746094 -11.5159375 16.94117188 -10.96875 16.08984375 C-10.4015625 15.23519531 -9.834375 14.38054688 -9.25 13.5 C-8.69828125 12.64535156 -8.1465625 11.79070313 -7.578125 10.91015625 C-2.2315629 2.67182379 -2.2315629 2.67182379 0 0 Z " fill="#EF1E23" transform="translate(343,734)"/>
<path d="M0 0 C3.43605181 1.48229451 5.68701591 3.4295174 8.328125 6.0625 C9.12734375 6.85914063 9.9265625 7.65578125 10.75 8.4765625 C11.575 9.30929687 12.4 10.14203125 13.25 11 C14.09046875 11.83273437 14.9309375 12.66546875 15.796875 13.5234375 C16.5909375 14.32007813 17.385 15.11671875 18.203125 15.9375 C18.93176758 16.66839844 19.66041016 17.39929688 20.41113281 18.15234375 C22 20 22 20 22 22 C10.12 22.99 10.12 22.99 -2 24 C-0.494375 25.4025 1.01125 26.805 2.5625 28.25 C5.12890625 30.640625 5.12890625 30.640625 7 33 C7.02734375 35.171875 7.02734375 35.171875 6 37 C4.68820422 37.70810596 3.35555017 38.37975331 2 39 C-0.99388876 36.03075698 -3.98453546 33.05829855 -6.97216797 30.08276367 C-7.98982788 29.0701449 -9.00838179 28.05842377 -10.02783203 27.04760742 C-11.48964407 25.5978706 -12.94825242 24.14497792 -14.40625 22.69140625 C-15.28603516 21.81685791 -16.16582031 20.94230957 -17.07226562 20.04125977 C-19 18 -19 18 -19 17 C-6.625 16.01 -6.625 16.01 6 15 C2.7 11.7 -0.6 8.4 -4 5 C-2.68 3.35 -1.36 1.7 0 0 Z " fill="#EF1E23" transform="translate(689,694)"/>
<path d="M0 0 C4.62291115 2.33138191 7.38798679 5.43766363 9.0625 10.3515625 C9.96390795 15.64733421 9.01916951 19.86558118 6.0625 24.3515625 C1.13776685 28.79583388 -1.89144683 29.71329086 -8.3984375 29.62890625 C-13.44323015 29.07785967 -16.03736364 26.34645006 -19.3125 22.7265625 C-21.51285013 18.15660453 -21.74839533 14.33856878 -20.9375 9.3515625 C-16.72313147 1.0733386 -9.20138855 -3.07949697 0 0 Z M-11.9375 8.3515625 C-14.27734763 10.27602546 -14.27734763 10.27602546 -14.3125 13.6640625 C-13.87706151 17.94587435 -13.08167985 19.46231615 -9.9375 22.3515625 C-7.54398505 23.51366469 -7.54398505 23.51366469 -4.9375 23.3515625 C-1.45115399 21.73000621 -0.09447806 20.58702958 2.0625 17.3515625 C2.6463196 14.436637 2.6463196 14.436637 2.0625 11.3515625 C-0.0713424 8.6842595 -1.87640053 6.88211224 -4.9375 5.3515625 C-7.90973786 5.3515625 -9.55631381 6.65966705 -11.9375 8.3515625 Z " fill="#EF1E23" transform="translate(536.9375,778.6484375)"/>
<path d="M0 0 C5.13308791 2.61320839 8.1797908 5.53937241 10 11 C10.59732231 16.87366941 9.95335628 20.42215958 6.55078125 25.30078125 C3.14553162 29.03197417 -0.7042648 29.86360682 -5.5625 30.375 C-10.74695662 29.80942291 -13.81507803 28.31302164 -17.3125 24.4375 C-20.57382042 19.72670383 -20.64080633 15.63736376 -20 10 C-15.27324771 1.03546979 -9.86160845 -1.12133554 0 0 Z M-12 9 C-13.67073042 11.76214972 -13.67073042 11.76214972 -14 15 C-12.53502838 19.00939602 -11.57596197 20.61602535 -8 23 C-5.0850745 23.5838196 -5.0850745 23.5838196 -2 23 C1.32878632 20.53959272 2.79301948 19.10389613 3.5625 15 C2.85564038 11.23008205 1.81831785 9.59581908 -1 7 C-5.64068427 5.42019259 -8.27107856 5.78898431 -12 9 Z " fill="#EF1E23" transform="translate(667,724)"/>
<path d="M0 0 C3.75255719 2.99651373 5.83429361 5.77085502 6.5234375 10.5078125 C6.66254507 16.29305088 6.27606724 20.02307165 2.63671875 24.6171875 C-1.55422008 28.40006123 -5.7210656 28.37872761 -11.15234375 28.27734375 C-15.91507088 27.7113385 -18.58709031 25.39146835 -21.66015625 21.89453125 C-24.08997048 17.93009751 -24.15659928 14.51394092 -23.84765625 9.95703125 C-21.95506884 4.69984399 -19.28562081 2.12700593 -14.84765625 -1.04296875 C-10.03799888 -2.65924872 -4.47034732 -2.52343073 0 0 Z M-15.84765625 8.95703125 C-17.31061425 11.88294725 -17.29288734 13.71320472 -16.84765625 16.95703125 C-14.34364619 20.04370831 -14.34364619 20.04370831 -10.84765625 21.95703125 C-7.16613615 22.03066165 -5.49626293 21.43033883 -2.53515625 19.26953125 C-0.40663546 16.35266943 0.15234375 14.57259202 0.15234375 10.95703125 C-1.86260652 7.17899949 -3.18038059 6.16328009 -7.28515625 4.89453125 C-11.58097204 4.96989644 -12.89985296 5.92252786 -15.84765625 8.95703125 Z " fill="#EF1E23" transform="translate(323.84765625,718.04296875)"/>
<path d="M0 0 C3.37530399 2.25020266 6.11688355 4.15044078 7.8125 7.875 C8.73441177 14.29359328 8.73369744 19.51787111 4.8125 24.875 C0.22813995 28.26742644 -3.25893838 29.54467284 -8.9765625 29.26171875 C-13.67681294 28.43959014 -16.98462721 26.31844735 -20.0625 22.625 C-22.23913558 17.30433525 -22.71265331 13.53337888 -21 8.125 C-16.22779417 -0.43205872 -9.35171207 -3.30060426 0 0 Z M-14.1875 9.875 C-15.5184316 13.27469811 -15.5184316 13.27469811 -15.1875 16.875 C-13.33408666 19.97850449 -13.33408666 19.97850449 -10.1875 21.875 C-6.22273594 22.50101538 -4.18987979 22.53446039 -0.8125 20.3125 C1.3824479 17.02007816 1.88194397 14.83330645 1.8125 10.875 C-0.59428679 7.44715214 -2.04587101 6.08905544 -6.1875 5.3125 C-9.99220451 6.0258821 -11.59946019 6.99118421 -14.1875 9.875 Z " fill="#EF1E23" transform="translate(238.1875,598.125)"/>
<path d="M0 0 C5.06563284 4.45161674 8.9929287 9.96717995 12 16 C11.505 17.485 11.505 17.485 11 19 C8.4375 20.1875 8.4375 20.1875 6 21 C5.61328125 20.278125 5.2265625 19.55625 4.828125 18.8125 C4.30734375 17.884375 3.7865625 16.95625 3.25 16 C2.73953125 15.071875 2.2290625 14.14375 1.703125 13.1875 C1.14109375 12.465625 0.5790625 11.74375 0 11 C-1.32 11 -2.64 11 -4 11 C-2.02 14.96 -0.04 18.92 2 23 C0.02 23.99 -1.96 24.98 -4 26 C-5.98 23.03 -7.96 20.06 -10 17 C-10.99 17.33 -11.98 17.66 -13 18 C-11.90621639 21.09905357 -10.71381455 23.40883636 -8.8125 26.125 C-7.9153125 27.548125 -7.9153125 27.548125 -7 29 C-7.33 29.99 -7.66 30.98 -8 32 C-10.5625 33.1875 -10.5625 33.1875 -13 34 C-14.67765426 31.40275919 -16.34015351 28.79615063 -18 26.1875 C-18.47695312 25.44951172 -18.95390625 24.71152344 -19.4453125 23.95117188 C-19.89648438 23.23896484 -20.34765625 22.52675781 -20.8125 21.79296875 C-21.23144531 21.1383667 -21.65039062 20.48376465 -22.08203125 19.80932617 C-23 18 -23 18 -23 15 C-20.50877078 13.23550392 -18.06246948 11.66529046 -15.4375 10.125 C-14.01815628 9.27573121 -12.60017635 8.42417888 -11.18359375 7.5703125 C-10.14114502 6.94237793 -10.14114502 6.94237793 -9.07763672 6.30175781 C-5.94564499 4.3393865 -2.98004133 2.18510258 0 0 Z " fill="#EF1E23" transform="translate(266,653)"/>
<path d="M0 0 C1.95354423 5.61643967 2.96504623 11.05893417 2 17 C-0.52403733 20.74781301 -2.07174071 21.76371582 -6.4375 22.875 C-10 23 -10 23 -13 22.125 C-16.00953662 21.67746787 -16.00953662 21.67746787 -17.9296875 23.48828125 C-19.70447552 25.2666331 -21.38112366 27.07938043 -23 29 C-25.36666763 25.44999856 -25.65591047 24.18142922 -25 20 C-23.56293885 18.23291609 -22.03740217 16.78220742 -20.3125 15.296875 C-19.6628125 14.65492188 -19.6628125 14.65492188 -19 14 C-19 13.34 -19 12.68 -19 12 C-23.455 12.495 -23.455 12.495 -28 13 C-28.33 10.69 -28.66 8.38 -29 6 C-24.91846379 4.99256612 -20.83449971 3.9953446 -16.75 3 C-15.59113281 2.71382812 -14.43226563 2.42765625 -13.23828125 2.1328125 C-12.12324219 1.86210938 -11.00820312 1.59140625 -9.859375 1.3125 C-8.83295898 1.06113281 -7.80654297 0.80976562 -6.74902344 0.55078125 C-4 0 -4 0 0 0 Z M-12 9 C-11.67 10.98 -11.34 12.96 -11 15 C-9.16299211 15.77242269 -9.16299211 15.77242269 -7 16 C-5.06345052 14.98029682 -5.06345052 14.98029682 -4 13 C-4.23043864 10.34533951 -4.23043864 10.34533951 -5 8 C-7.62113708 8 -9.50935112 8.31292445 -12 9 Z " fill="#EF1E23" transform="translate(234,566)"/>
<path d="M0 0 C1.093125 0.226875 2.18625 0.45375 3.3125 0.6875 C4.68025425 6.0056953 4.68025425 6.0056953 3.08203125 8.96875 C2.43621094 9.7009375 1.79039062 10.433125 1.125 11.1875 C0.3928125 12.03828125 -0.339375 12.8890625 -1.09375 13.765625 C-1.9496875 14.72984375 -2.805625 15.6940625 -3.6875 16.6875 C-4.70051361 17.86756731 -5.71080465 19.04997574 -6.71875 20.234375 C-9.22891155 23.18285563 -11.75139284 26.12002718 -14.29125977 29.04296875 C-15.23305121 30.15223736 -16.15263962 31.28069257 -17.05053711 32.42578125 C-20.36648846 36.63714525 -20.36648846 36.63714525 -23.875 37.1875 C-26.6875 36.6875 -26.6875 36.6875 -28.6875 34.6875 C-29.24746074 31.6672393 -29.27639513 29.62202207 -27.60595703 26.97119141 C-26.05306149 25.07635467 -24.42805105 23.28492445 -22.75 21.5 C-21.55468396 20.17956615 -20.36068161 18.85794195 -19.16796875 17.53515625 C-18.57677246 16.88691895 -17.98557617 16.23868164 -17.37646484 15.57080078 C-14.27560212 12.1131461 -11.39973261 8.48009155 -8.4921875 4.859375 C-4.1613281 -0.35265492 -4.1613281 -0.35265492 0 0 Z " fill="#1E5A64" transform="translate(684.6875,244.3125)"/>
<path d="M0 0 C3.15204981 1.39347376 5.26171773 3.02485079 7.671875 5.4765625 C8.33574219 6.146875 8.99960937 6.8171875 9.68359375 7.5078125 C10.36550781 8.20648437 11.04742188 8.90515625 11.75 9.625 C12.44738281 10.33140625 13.14476562 11.0378125 13.86328125 11.765625 C15.58007465 13.50593612 17.29064819 15.25237912 19 17 C19.99 13.37 20.98 9.74 22 6 C26 5 26 5 29 6 C27.70834692 14.43373483 26.00616752 22.7078409 24 31 C20.84795019 29.60652624 18.73828227 27.97514921 16.328125 25.5234375 C15.66425781 24.853125 15.00039063 24.1828125 14.31640625 23.4921875 C13.63449219 22.79351563 12.95257812 22.09484375 12.25 21.375 C11.55261719 20.66859375 10.85523438 19.9621875 10.13671875 19.234375 C8.41992535 17.49406388 6.70935181 15.74762088 5 14 C3.02 18.455 3.02 18.455 1 23 C-1.31 22.67 -3.62 22.34 -6 22 C-5.67 20.02 -5.34 18.04 -5 16 C-4.34 16 -3.68 16 -3 16 C-2.95101562 15.43152344 -2.90203125 14.86304688 -2.8515625 14.27734375 C-2.36856919 9.28918871 -1.52361837 4.77400422 0 0 Z " fill="#EF1E23" transform="translate(753,563)"/>
<path d="M0 0 C3 0.25 3 0.25 5 2.25 C5.28286455 5.13970354 5.44639035 7.9392206 5.51953125 10.8359375 C5.55925301 12.11593124 5.55925301 12.11593124 5.59977722 13.42178345 C5.65250349 15.22896636 5.70007656 17.03630579 5.74291992 18.84375 C5.81206629 21.60766371 5.90802471 24.36978406 6.00585938 27.1328125 C6.05372422 28.88797685 6.10000043 30.64318539 6.14453125 32.3984375 C6.17561478 33.22459564 6.2066983 34.05075378 6.23872375 34.90194702 C6.34153626 40.67213457 6.34153626 40.67213457 4.4909668 43.80322266 C3.99894775 44.28065918 3.50692871 44.7580957 3 45.25 C0.6568787 44.99438677 -1.67843403 44.65729228 -4 44.25 C-5.68319638 40.88360724 -5.16316848 37.07759311 -5.16796875 33.375 C-5.17129715 32.49473145 -5.17462555 31.61446289 -5.17805481 30.70751953 C-5.18312167 28.84473189 -5.18546321 26.98193515 -5.18530273 25.11914062 C-5.18749114 22.26156774 -5.20565453 19.40437963 -5.22460938 16.546875 C-5.2275429 14.73958466 -5.22952797 12.93229248 -5.23046875 11.125 C-5.23765427 10.26664551 -5.24483978 9.40829102 -5.25224304 8.52392578 C-5.2209088 0.43507573 -5.2209088 0.43507573 0 0 Z " fill="#1E5A64" transform="translate(485,172.75)"/>
<path d="M0 0 C1.54174322 5.22688556 1.54512451 10.60768724 1 16 C-1.09215512 19.67930728 -2.01148019 20.6704934 -6 22 C-9.94236319 22.36503363 -12.29010552 22.37861039 -15.8125 20.5 C-18.78168189 17.10664927 -19.19184086 14.40814077 -20 10 C-22.97 10 -25.94 10 -29 10 C-29 7.69 -29 5.38 -29 3 C-24.72948913 2.49721989 -20.4585415 1.99825077 -16.1875 1.5 C-14.36508789 1.28537109 -14.36508789 1.28537109 -12.50585938 1.06640625 C-11.34248047 0.93105469 -10.17910156 0.79570313 -8.98046875 0.65625 C-7.90692139 0.53056641 -6.83337402 0.40488281 -5.72729492 0.27539062 C-3 0 -3 0 0 0 Z M-13 8 C-12.67 9.98 -12.34 11.96 -12 14 C-9.60280568 14.67958603 -9.60280568 14.67958603 -7 15 C-6.34 14.34 -5.68 13.68 -5 13 C-5.32041397 10.39719432 -5.32041397 10.39719432 -6 8 C-8.31 8 -10.62 8 -13 8 Z " fill="#EF1E23" transform="translate(230,537)"/>
<path d="M0 0 C2.5625 1.5625 2.5625 1.5625 4 3 C3.67 4.32 3.34 5.64 3 7 C-0.81489674 8.46726798 -3.29011622 7.43336419 -7 6 C-7 6.99 -7 7.98 -7 9 C-5.52486614 10.32082618 -5.52486614 10.32082618 -3.625 11.4375 C1.23617021 14.7537234 1.23617021 14.7537234 2 18 C1.67813268 24.11547912 1.67813268 24.11547912 -0.4375 26.875 C-4.08014888 29.49770719 -7.65597465 29.45132731 -12 29 C-17.51839465 26.99331104 -17.51839465 26.99331104 -19 23.9375 C-19 22 -19 22 -17 20 C-15.25 20.3125 -15.25 20.3125 -13 21 C-11.00211562 21.34578768 -9.00240549 21.68143549 -7 22 C-7 21.01 -7 20.02 -7 19 C-8.74809133 17.56261937 -8.74809133 17.56261937 -10.9375 16.25 C-14.15337474 13.95213205 -14.88620945 13.34137165 -16.1875 9.4375 C-15.97897405 5.6145243 -15.42972114 3.93242206 -13 1 C-8.66449544 -1.71777898 -4.82793744 -1.1161837 0 0 Z " fill="#EF1E23" transform="translate(463,779)"/>
<path d="M0 0 C4.11657438 2.1518457 5.37356186 4.50011293 6.8125 8.75 C7.22470957 10.16198858 7.62610764 11.57738516 8 13 C6.02 13.66 4.04 14.32 2 15 C1.34 12.69 0.68 10.38 0 8 C-2.475 7.505 -2.475 7.505 -5 7 C-4.84402344 7.56847656 -4.68804687 8.13695312 -4.52734375 8.72265625 C-3.25423706 13.77292718 -2.56019905 17.85785374 -4 23 C-6.43243277 26.01621663 -8.04864734 26.00540526 -11.9375 26.4375 C-14.93001613 26.30400486 -16.09870692 25.94516282 -18.8125 24.4375 C-22.12102179 20.75086144 -24 16.99185022 -24 12 C-22.02 11.67 -20.04 11.34 -18 11 C-17.566875 12.134375 -17.13375 13.26875 -16.6875 14.4375 C-15.8521875 16.2009375 -15.8521875 16.2009375 -15 18 C-14.01 18.33 -13.02 18.66 -12 19 C-10.7771008 16.22609489 -10.7771008 16.22609489 -11.4375 14.25 C-12.2540587 10.98376521 -12.35332762 8.35661242 -12 5 C-8.57935012 0.12816532 -5.85570965 -0.94109619 0 0 Z " fill="#EF1E23" transform="translate(286,681)"/>
<path d="M0 0 C0 2.64 0 5.28 0 8 C-1.98 8.33 -3.96 8.66 -6 9 C-6 11.97 -6 14.94 -6 18 C-4.68 18.66 -3.36 19.32 -2 20 C-2 22.31 -2 24.62 -2 27 C-6.02646726 26.40638629 -8.9329847 25.12070865 -12.44921875 23.09375 C-13.46177734 22.51496094 -14.47433594 21.93617188 -15.51757812 21.33984375 C-16.56365234 20.73269531 -17.60972656 20.12554688 -18.6875 19.5 C-20.77463476 18.30190071 -22.86186926 17.10397514 -24.94921875 15.90625 C-25.87049561 15.37322266 -26.79177246 14.84019531 -27.7409668 14.29101562 C-29.14057403 13.49115363 -30.55814575 12.72092713 -32 12 C-32 11.34 -32 10.68 -32 10 C-27.60403226 8.57399373 -23.20745846 7.14987791 -18.81030273 5.72753906 C-17.31338808 5.24303752 -15.81664273 4.75801256 -14.32006836 4.27246094 C-12.17345379 3.57610798 -10.02624465 2.88161717 -7.87890625 2.1875 C-7.20598038 1.96876221 -6.5330545 1.75002441 -5.83973694 1.5246582 C-1.11387171 0 -1.11387171 0 0 0 Z M-13 11 C-14.98 11.99 -14.98 11.99 -17 13 C-14.525 13.495 -14.525 13.495 -12 14 C-12.33 13.01 -12.66 12.02 -13 11 Z " fill="#EF1E23" transform="translate(786,533)"/>
<path d="M0 0 C22.60389809 -0.34306085 22.60389809 -0.34306085 33 2 C32.125 6.75 32.125 6.75 31 9 C28.69 8.67 26.38 8.34 24 8 C23.61090015 9.45463481 23.23911971 10.91391207 22.875 12.375 C22.66617188 13.18710937 22.45734375 13.99921875 22.2421875 14.8359375 C22.16226563 15.55007813 22.08234375 16.26421875 22 17 C22.66 17.66 23.32 18.32 24 19 C23.6730244 21.61580479 23.17960932 23.64078137 22 26 C17.93476977 24.64492326 16.30350632 21.86281517 13.8125 18.5625 C12.83381622 17.28869134 11.85464557 16.01525662 10.875 14.7421875 C10.39160156 14.11022461 9.90820312 13.47826172 9.41015625 12.82714844 C6.79025958 9.43253163 4.07017252 6.11826805 1.36328125 2.79296875 C0 1 0 1 0 0 Z M14 7 C14.33 7.99 14.66 8.98 15 10 C15.66 10 16.32 10 17 10 C17.33 9.01 17.66 8.02 18 7 C16.68 7 15.36 7 14 7 Z " fill="#EF1E23" transform="translate(726,638)"/>
<path d="M0 0 C0.02927916 3.99998437 0.04689219 7.99994076 0.0625 12 C0.07087891 13.12535156 0.07925781 14.25070312 0.08789062 15.41015625 C0.10533416 21.37584397 -0.08218777 27.10287573 -1 33 C-5.75 32.125 -5.75 32.125 -8 31 C-8 29.02 -8 27.04 -8 25 C-10.76605639 23.28322447 -10.76605639 23.28322447 -14 22 C-16.21734114 22.6501992 -16.21734114 22.6501992 -18 24 C-21 25 -21 25 -23.1875 24.0625 C-24.0846875 23.5365625 -24.0846875 23.5365625 -25 23 C-23.39528015 18.74444546 -20.17876827 16.14053692 -16.875 13.1875 C-16.29258545 12.65995117 -15.7101709 12.13240234 -15.11010742 11.58886719 C-13.94725946 10.53797093 -12.78186084 9.48988929 -11.61376953 8.44482422 C-10.21337959 7.19104091 -8.82259922 5.92654023 -7.43359375 4.66015625 C-2.25881902 0 -2.25881902 0 0 0 Z M-8 14 C-8.99 15.485 -8.99 15.485 -10 17 C-9.01 17.33 -8.02 17.66 -7 18 C-7.33 16.68 -7.66 15.36 -8 14 Z " fill="#EF1E23" transform="translate(385,756)"/>
<path d="M0 0 C0.33 2.31 0.66 4.62 1 7 C-1.97 7.66 -4.94 8.32 -8 9 C-8.94976786 12.62638638 -9.11510231 14.64792235 -7.9375 18.25 C-6.1785115 21.17809748 -6.1785115 21.17809748 -3.125 22.5625 C0.00391922 23.28044995 0.00391922 23.28044995 2.6875 21.8125 C4.61839427 20.29909638 6.3562449 18.81678195 8 17 C9.65 17.99 11.3 18.98 13 20 C11.64844718 24.42326378 9.80109562 26.40412982 6 29 C1.04662639 30.65112454 -3.9639362 30.85967138 -8.8125 28.8125 C-13.50457527 24.92478049 -15.76794719 21.30670437 -16.87109375 15.34375 C-17.08827696 11.39496443 -16.15330143 8.30471955 -14 5 C-9.42363196 1.28170097 -5.84945637 -0.15809342 0 0 Z " fill="#EF1E23" transform="translate(636,742)"/>
<path d="M0 0 C2.475 0.99 2.475 0.99 5 2 C5 6.47222222 5 6.47222222 2.5 9.125 C-0.21872624 11.61654556 -0.21872624 11.61654556 0 14 C0.99 14.33 1.98 14.66 3 15 C4.98 12.69 6.96 10.38 9 8 C10.65 8.99 12.3 9.98 14 11 C13.38545304 14.99455527 11.29353263 17.74466336 9 21 C11.31 22.65 13.62 24.3 16 26 C15.67 27.65 15.34 29.3 15 31 C13.26391602 31.6809082 13.26391602 31.6809082 11 32 C8.94116211 30.86010742 8.94116211 30.86010742 6.77734375 29.10546875 C5.99166016 28.47962891 5.20597656 27.85378906 4.39648438 27.20898438 C3.58501953 26.54189453 2.77355469 25.87480469 1.9375 25.1875 C0.32206284 23.88876515 -1.29380483 22.59056557 -2.91015625 21.29296875 C-3.62308838 20.7105542 -4.33602051 20.12813965 -5.07055664 19.52807617 C-7.12976714 17.85445684 -7.12976714 17.85445684 -10 16 C-9.52112335 11.23735403 -7.50511358 8.77358348 -4.4375 5.1875 C-3.61121094 4.21167969 -2.78492188 3.23585938 -1.93359375 2.23046875 C-1.29550781 1.49441406 -0.65742187 0.75835938 0 0 Z " fill="#EF1E23" transform="translate(707,671)"/>
<path d="M0 0 C2.64 5.61 5.28 11.22 8 17 C5 19 5 19 1 19 C0.32845067 17.71086513 -0.33708859 16.41859796 -1 15.125 C-1.37125 14.40570312 -1.7425 13.68640625 -2.125 12.9453125 C-3 11 -3 11 -3 9 C-4.98 9.99 -4.98 9.99 -7 11 C-6.690625 11.9075 -6.38125 12.815 -6.0625 13.75 C-5.2727737 16.16563338 -4.57050703 18.52780285 -4 21 C-7 23 -7 23 -8.9375 23.0625 C-12.31342733 21.32338592 -13.30358502 18.33224371 -15 15 C-16.6396875 15.99 -16.6396875 15.99 -18.3125 17 C-20.93707538 18.58464929 -21.8256378 19 -25 19 C-25.66 17.02 -26.32 15.04 -27 13 C-23.95888251 11.39479066 -20.91700767 9.79102164 -17.875 8.1875 C-17.0190625 7.73568359 -16.163125 7.28386719 -15.28125 6.81835938 C-2.3412979 0 -2.3412979 0 0 0 Z " fill="#EF1E23" transform="translate(255,629)"/>
<path d="M0 0 C-0.144375 1.05058594 -0.28875 2.10117187 -0.4375 3.18359375 C-2.31485091 17.07910493 -2.31485091 17.07910493 -1 31 C-4 33 -4 33 -6.09375 32.8671875 C-8 32 -8 32 -8.84375 30.3203125 C-9.0603125 29.59585938 -9.276875 28.87140625 -9.5 28.125 C-11.65799401 22.64229165 -15.36024879 19.52201364 -19.75976562 15.80712891 C-22.56496316 13.42235991 -24.68313046 11.48726563 -26 8 C-21.86010363 5.88601036 -21.86010363 5.88601036 -19 6 C-15.59349695 8.27459539 -12.80906019 11.03169603 -10 14 C-9.91363281 13.15695312 -9.82726562 12.31390625 -9.73828125 11.4453125 C-9.59777344 10.34960938 -9.45726562 9.25390625 -9.3125 8.125 C-9.18488281 7.03445313 -9.05726563 5.94390625 -8.92578125 4.8203125 C-8 2 -8 2 -5.60546875 0.6171875 C-3 0 -3 0 0 0 Z " fill="#EF1E23" transform="translate(593,762)"/>
<path d="M0 0 C1.98 0.66 3.96 1.32 6 2 C5.47433146 7.7823539 3.78716807 12.86730093 1.83984375 18.328125 C0.85006857 21.01019792 0.85006857 21.01019792 1 24 C4.63 25.32 8.26 26.64 12 28 C11.67 29.98 11.34 31.96 11 34 C4.4016516 33.40015015 -1.88889737 31.55432523 -8 29 C-9 27 -9 27 -8.28735352 24.29443359 C-7.90506592 23.17375488 -7.52277832 22.05307617 -7.12890625 20.8984375 C-6.71962891 19.68671875 -6.31035156 18.475 -5.88867188 17.2265625 C-5.44677503 15.9426531 -5.00471562 14.65879964 -4.5625 13.375 C-4.12366466 12.08356566 -3.68550491 10.79190154 -3.24804688 9.5 C-2.17200727 6.33100424 -1.08905457 3.16454188 0 0 Z " fill="#EF1E23" transform="translate(403,765)"/>
<path d="M0 0 C4 2 4 2 6 5 C-0.6 11.6 -7.2 18.2 -14 25 C-18 23 -18 23 -20 20 C-13.4 13.4 -6.8 6.8 0 0 Z " fill="#EF1E23" transform="translate(301,699)"/>
<path d="M0 0 C8.67102935 4.51247446 16.84002312 9.63943124 25 15 C24.6875 17.375 24.6875 17.375 24 20 C23.01 20.66 22.02 21.32 21 22 C17.18253315 19.54931349 13.37190744 17.08819207 9.5625 14.625 C8.47388672 13.92632813 7.38527344 13.22765625 6.26367188 12.5078125 C4.71196289 11.50234375 4.71196289 11.50234375 3.12890625 10.4765625 C2.17056885 9.85861816 1.21223145 9.24067383 0.22485352 8.60400391 C-2 7 -2 7 -3 5 C-1.5625 2.375 -1.5625 2.375 0 0 Z " fill="#EF1E23" transform="translate(716,657)"/>
<path d="M0 0 C2.00720923 0.28674418 4.0085944 0.61866701 6 1 C5.40390686 7.73516737 4.14905977 14.02788945 2.4375 20.5625 C2.20353516 21.47580078 1.96957031 22.38910156 1.72851562 23.33007812 C1.15776375 25.55484564 0.58152522 27.77802897 0 30 C-2.31 29.67 -4.62 29.34 -7 29 C-6.16859328 25.02966291 -5.33231693 21.06038673 -4.49145508 17.09204102 C-4.20592366 15.74108903 -3.92173953 14.38985156 -3.63891602 13.03833008 C-3.23285092 11.09903144 -2.82158325 9.16082443 -2.41015625 7.22265625 C-2.04096069 5.47094116 -2.04096069 5.47094116 -1.66430664 3.68383789 C-1 1 -1 1 0 0 Z " fill="#EF1E23" transform="translate(432,774)"/>
</svg>
